<svg xmlns="http://www.w3.org/2000/svg" width="385" height="513" viewBox="0 0 385 513" version="1.1"><path d="M 171.396 225.858 C 133.287 252.621, 118.760 319.961, 138.546 378.134 C 139.895 382.103, 141 385.527, 141 385.743 C 141 392.918, 115.783 357.813, 110.987 343.961 L 108.232 336.005 104.164 342.253 C 58.246 412.779, 119.865 520.928, 200.887 512.012 C 259.919 505.517, 301.204 458.616, 295.997 403.964 C 294.285 385.998, 286.163 358.784, 284.815 366.500 C 281.677 384.472, 280.461 389.799, 277.395 399 C 272.364 414.095, 257.337 440.330, 259.352 430.500 C 266.908 393.635, 256.403 362.775, 220.547 316.500 C 192.334 280.089, 181 254.544, 181 227.369 C 181 219.514, 180.534 219.441, 171.396 225.858" stroke="none" fill="#fff" fill-rule="evenodd"/><path d="M 231.500 6.849 C 127.673 49.797, 76.637 114.805, 76.529 204.250 C 76.513 217.313, 76.204 228, 75.843 228 C 68.246 228, 55.210 196.636, 51.943 170.500 C 50.330 157.587, 50.332 157.588, 43.789 166.727 C 3.607 222.852, -8.378 277.905, 5.633 342 C 24.249 427.158, 86.122 493.741, 160.777 508.955 C 173.848 511.618, 176.394 511.472, 167 508.598 C 100.002 488.100, 66.665 399.848, 104.164 342.253 L 108.232 336.005 110.987 343.961 C 115.783 357.813, 141 392.918, 141 385.743 C 141 385.527, 139.895 382.103, 138.546 378.134 C 118.760 319.961, 133.287 252.621, 171.396 225.858 C 180.534 219.441, 181 219.514, 181 227.369 C 181 254.544, 192.334 280.089, 220.547 316.500 C 256.403 362.775, 266.908 393.635, 259.352 430.500 C 257.337 440.330, 272.364 414.095, 277.395 399 C 280.461 389.799, 281.677 384.472, 284.815 366.500 C 286.163 358.784, 294.285 385.998, 295.997 403.964 C 301.107 457.601, 259.946 505.367, 203 511.882 L 195.500 512.741 206 512.851 C 312.849 513.972, 387.328 421.039, 385.800 288.500 C 385.647 275.210, 385.556 274.469, 385 282 C 384.535 288.299, 384.320 289.205, 384.168 285.500 C 382.875 253.900, 367.459 205.236, 349.653 176.540 L 347.196 172.581 346.678 178.040 C 346.394 181.043, 345.443 191.375, 344.566 201 C 341.701 232.460, 334.026 262.737, 323.391 284.538 L 318.532 294.500 317.734 290 C 312.307 259.377, 302.971 236.956, 274.009 185 C 222.174 92.010, 214.846 52.303, 241.858 10.791 C 248.463 0.641, 248.283 0.996, 246.809 1.029 C 246.089 1.045, 239.200 3.664, 231.500 6.849 M 0.411 292 C 0.411 301.625, 0.561 305.563, 0.745 300.750 C 0.928 295.938, 0.928 288.063, 0.745 283.250 C 0.561 278.438, 0.411 282.375, 0.411 292" stroke="none" fill="#a8e524" fill-rule="evenodd"/></svg>